<?xml version="1.0" standalone="no"?>
<!DOCTYPE svg PUBLIC "-//W3C//DTD SVG 20010904//EN"
 "http://www.w3.org/TR/2001/REC-SVG-20010904/DTD/svg10.dtd">
<svg version="1.0" xmlns="http://www.w3.org/2000/svg"
 width="500.000000pt" height="500.000000pt" viewBox="0 0 500.000000 500.000000"
 preserveAspectRatio="xMidYMid meet">
<metadata>
Created by potrace 1.11, written by Peter Selinger 2001-2013
</metadata>
<g transform="translate(0.000000,500.000000) scale(0.100000,-0.100000)"
fill="#000000" stroke="none">
<path d="M2410 4659 c0 -245 -2 -280 -15 -275 -8 3 -80 44 -160 91 -80 47
-149 84 -154 81 -11 -7 -91 -142 -91 -153 0 -4 94 -63 208 -129 l207 -122 3
-111 c1 -61 0 -111 -3 -111 -3 0 -134 77 -291 170 -157 94 -289 168 -294 165
-14 -9 -91 -146 -88 -156 2 -6 154 -99 338 -208 l335 -199 3 -71 c2 -47 -1
-71 -8 -71 -6 0 -77 39 -158 86 -81 48 -150 89 -154 91 -8 4 -100 -146 -96
-158 2 -5 95 -65 208 -132 l205 -122 3 -377 c1 -208 1 -378 -2 -378 -2 0 -142
67 -312 149 l-309 149 -6 75 c-4 42 -10 146 -14 232 l-7 155 -62 0 c-33 0 -77
-3 -96 -6 l-35 -6 7 -111 c3 -62 7 -140 7 -174 l1 -62 -57 25 c-32 14 -61 29
-65 32 -4 4 -17 187 -29 407 -12 220 -22 400 -23 401 0 1 -43 -1 -93 -4 l-93
-4 0 -56 c0 -30 7 -173 16 -318 8 -144 14 -276 12 -293 l-3 -31 -102 50 c-85
40 -103 53 -104 72 0 13 -6 115 -12 228 l-12 205 -94 -2 c-51 -1 -95 -3 -96
-5 -2 -2 1 -79 7 -171 5 -93 8 -170 6 -173 -3 -2 -112 48 -243 111 -130 63
-240 115 -244 115 -8 0 -81 -150 -81 -165 0 -6 113 -64 250 -129 l250 -119
-155 -104 c-104 -69 -153 -108 -148 -116 35 -59 94 -147 98 -147 3 0 96 60
206 134 l201 134 99 -46 c54 -26 98 -49 98 -52 0 -3 -118 -82 -262 -177 -144
-95 -271 -178 -281 -186 -18 -13 -16 -17 33 -91 33 -49 58 -76 66 -72 7 2 155
100 329 215 174 116 318 211 320 211 2 0 35 -14 72 -30 l68 -31 -158 -105
-158 -105 18 -27 c81 -125 86 -131 103 -123 9 5 101 65 205 134 l189 125 41
-18 c23 -10 155 -74 294 -142 l254 -124 -284 -169 c-155 -92 -287 -168 -293
-168 -5 0 -97 51 -204 112 -107 61 -195 110 -196 109 -1 -2 -23 -39 -48 -83
l-46 -79 127 -74 c186 -109 177 -102 161 -117 -8 -7 -35 -24 -60 -39 l-45 -26
-348 200 c-191 110 -348 200 -351 200 -5 0 -97 -161 -93 -165 2 -1 131 -76
288 -165 157 -90 291 -168 298 -174 9 -9 -10 -25 -82 -69 -51 -31 -98 -57
-104 -57 -6 0 -97 50 -203 110 -105 61 -195 108 -199 105 -12 -7 -93 -155 -88
-160 2 -2 70 -42 152 -88 145 -83 148 -85 125 -100 -13 -8 -112 -68 -219 -132
-107 -65 -201 -123 -208 -130 -12 -10 -6 -27 33 -94 l47 -81 31 19 c18 10 126
76 240 145 114 69 210 126 212 126 3 0 5 -83 5 -185 l0 -185 95 0 95 0 0 244
0 244 91 56 c50 31 93 56 95 56 2 0 4 -150 4 -334 0 -184 4 -337 8 -340 5 -3
50 -2 101 1 l92 6 -7 392 -7 392 60 36 c33 20 63 37 67 37 3 0 6 -83 6 -185
l0 -186 98 3 97 3 0 245 0 244 275 168 c151 92 278 167 283 167 4 1 6 -128 5
-285 l-3 -286 -207 -122 c-114 -66 -207 -124 -208 -129 0 -14 85 -156 94 -157
5 0 78 40 162 90 83 49 154 90 158 90 3 0 6 -33 6 -73 l0 -74 -344 -202 -344
-202 50 -85 c48 -80 52 -84 72 -71 77 50 549 327 557 327 6 0 9 -42 7 -107
l-3 -108 -205 -123 c-113 -67 -206 -127 -208 -131 -2 -5 18 -43 44 -85 l46
-77 46 27 c26 15 99 58 162 95 l115 68 3 -279 2 -280 95 0 95 0 0 270 c0 149
2 270 5 270 2 0 69 -36 148 -80 79 -44 148 -80 153 -80 9 0 84 129 92 155 1 6
-88 59 -198 120 l-200 110 0 118 0 118 33 -17 c17 -9 153 -84 301 -165 147
-82 271 -149 275 -149 7 0 91 145 91 157 0 5 -157 96 -350 202 l-350 195 0 72
0 72 155 -85 c86 -47 157 -84 159 -82 23 29 86 163 80 169 -5 4 -92 54 -194
110 -102 56 -188 105 -193 109 -4 4 -6 143 -5 309 l3 301 300 -145 c164 -80
300 -146 301 -147 1 -1 9 -92 18 -202 9 -110 19 -219 22 -243 l5 -43 92 7 c51
4 93 8 95 9 2 2 -4 80 -12 174 -9 95 -16 179 -16 187 0 11 18 5 70 -21 54 -27
70 -40 70 -57 0 -24 61 -762 64 -764 4 -4 179 15 184 20 3 3 -7 153 -22 332
-15 179 -25 328 -23 330 4 4 180 -79 194 -90 1 -1 11 -109 23 -241 11 -131 22
-240 24 -242 9 -9 178 11 183 22 2 7 -2 91 -10 186 -8 96 -14 175 -12 177 1 1
112 -52 248 -118 135 -66 249 -120 252 -120 11 0 84 165 77 172 -4 4 -114 58
-244 121 -215 104 -236 116 -220 129 9 8 74 55 144 103 l127 88 -46 66 c-25
36 -51 72 -57 78 -9 10 -53 -17 -195 -117 -102 -72 -188 -130 -192 -130 -13 0
-209 93 -208 99 0 3 128 96 284 205 l284 199 -37 52 c-20 28 -46 63 -57 78
l-20 26 -324 -229 c-179 -127 -332 -230 -340 -230 -9 1 -40 14 -70 29 l-54 28
54 39 c30 22 91 66 136 97 45 32 85 62 88 67 5 8 -58 108 -94 152 -4 4 -92
-52 -196 -126 l-189 -133 -255 124 c-141 69 -276 134 -300 144 -25 11 -40 23
-35 28 5 4 130 81 277 170 l268 162 217 -115 c194 -104 217 -114 227 -98 5 9
26 47 47 83 l36 67 -164 88 c-108 58 -160 91 -154 98 4 6 33 24 63 40 l54 30
347 -187 c190 -103 347 -187 349 -187 6 0 91 169 87 173 -3 2 -133 72 -290
156 -157 84 -288 155 -292 159 -3 4 36 32 87 64 l93 56 212 -114 c117 -63 215
-114 219 -114 7 0 94 160 89 165 -1 2 -70 40 -153 84 -82 45 -153 85 -158 90
-5 5 94 70 220 146 125 76 232 141 236 145 6 5 -49 109 -88 168 -1 1 -102 -59
-225 -134 -123 -75 -230 -138 -237 -141 -10 -4 -13 11 -13 64 0 39 -3 118 -7
177 l-6 107 -91 -3 -91 -3 3 -235 3 -235 -98 -57 -98 -57 -6 107 c-4 59 -10
217 -14 351 l-8 244 -96 -8 c-53 -3 -96 -7 -97 -8 0 -1 5 -150 12 -332 7 -181
13 -362 13 -401 l1 -72 -59 -35 -58 -35 -7 52 c-3 28 -6 105 -6 172 0 66 -2
123 -4 125 -2 2 -48 3 -100 1 l-97 -3 5 -87 c3 -48 8 -152 11 -232 l5 -145
-242 -145 c-132 -80 -263 -158 -289 -173 l-49 -29 0 379 0 378 200 110 c110
61 200 114 200 118 0 14 -85 157 -93 157 -5 0 -74 -36 -153 -80 -80 -44 -147
-80 -150 -80 -3 0 -4 32 -2 72 l3 72 338 187 c186 102 343 191 349 197 8 8 -2
33 -34 89 -24 43 -49 77 -54 76 -8 -1 -450 -245 -561 -309 l-43 -25 0 120 0
119 193 107 c105 59 196 110 200 115 8 7 -65 154 -81 164 -4 2 -75 -34 -157
-80 l-150 -83 -3 274 -2 275 -95 0 -95 0 0 -281z"/>
</g>
</svg>
