<?xml version="1.0" standalone="no"?>
<!DOCTYPE svg PUBLIC "-//W3C//DTD SVG 20010904//EN"
 "http://www.w3.org/TR/2001/REC-SVG-20010904/DTD/svg10.dtd">
<svg version="1.0" xmlns="http://www.w3.org/2000/svg"
 width="152.000000pt" height="152.000000pt" viewBox="0 0 152.000000 152.000000"
 preserveAspectRatio="xMidYMid meet">
<metadata>
Created by potrace 1.11, written by Peter Selinger 2001-2013
</metadata>
<g transform="translate(0.000000,152.000000) scale(0.100000,-0.100000)"
fill="#000000" stroke="none">
<path d="M760 1225 c0 -28 -12 -32 -30 -10 -10 12 -16 13 -27 4 -12 -10 -8
-18 20 -48 19 -20 37 -43 40 -51 4 -10 6 -9 6 6 1 11 -4 25 -11 32 -6 6 -8 15
-4 19 4 4 12 -1 18 -12 11 -19 11 -19 20 0 6 15 7 11 4 -12 l-5 -32 34 38 c19
21 35 44 35 50 0 14 -27 15 -35 1 -11 -18 -25 -10 -25 15 0 18 -5 25 -20 25
-15 0 -20 -7 -20 -25z"/>
<path d="M700 1105 c-9 -10 -9 -15 -1 -15 6 0 11 5 11 11 0 8 6 7 18 -2 15
-13 16 -12 3 4 -16 21 -16 21 -31 2z"/>
<path d="M794 1098 c3 -15 26 -23 26 -8 0 6 -4 9 -9 6 -5 -4 -12 -1 -14 4 -3
6 -4 5 -3 -2z"/>
<path d="M751 1084 c0 -11 3 -14 6 -6 3 7 2 16 -1 19 -3 4 -6 -2 -5 -13z"/>
<path d="M840 1089 c0 -5 5 -7 10 -4 6 3 10 8 10 11 0 2 -4 4 -10 4 -5 0 -10
-5 -10 -11z"/>
<path d="M425 1038 l7 -32 -25 17 c-24 16 -27 16 -35 0 -7 -12 -4 -21 12 -35
l21 -18 -22 -6 c-25 -7 -32 -44 -9 -44 8 0 17 3 19 8 8 12 80 8 84 -5 2 -6 -5
-14 -17 -18 -12 -4 -19 -12 -17 -18 5 -15 56 -19 76 -6 14 9 14 10 -1 5 -10
-3 -28 -1 -40 3 -23 9 -23 9 5 16 29 8 37 25 12 25 -8 0 -15 5 -15 10 0 6 19
10 43 10 25 0 37 4 29 8 -7 5 -10 16 -6 25 3 9 3 21 0 26 -7 11 -36 4 -36 -10
0 -4 7 -6 15 -3 17 7 19 -4 6 -25 -10 -15 -51 -6 -51 12 0 7 -5 29 -11 50 -7
27 -15 37 -30 37 -18 0 -20 -4 -14 -32z"/>
<path d="M600 1056 c0 -8 4 -17 8 -20 4 -2 8 4 8 15 0 10 -4 19 -8 19 -4 0 -8
-6 -8 -14z"/>
<path d="M920 1050 c-9 -6 -10 -10 -3 -10 6 0 15 5 18 10 8 12 4 12 -15 0z"/>
<path d="M1086 1038 c-3 -7 -9 -28 -15 -47 -14 -44 -14 -49 2 -26 9 11 16 14
21 7 3 -6 1 -14 -5 -18 -8 -4 -7 -9 2 -16 10 -7 5 -8 -13 -4 -48 11 -30 -2 26
-18 69 -20 76 -20 76 3 0 11 -9 21 -22 25 l-23 6 22 18 c30 23 16 50 -16 33
-19 -11 -21 -9 -21 19 0 30 -26 44 -34 18z m39 -97 c3 -5 2 -12 -3 -15 -5 -3
-9 1 -9 9 0 17 3 19 12 6z"/>
<path d="M1008 993 c7 -3 16 -2 19 1 4 3 -2 6 -13 5 -11 0 -14 -3 -6 -6z"/>
<path d="M892 960 c0 -14 2 -19 5 -12 2 6 2 18 0 25 -3 6 -5 1 -5 -13z"/>
<path d="M612 940 c0 -14 2 -19 5 -12 2 6 2 18 0 25 -3 6 -5 1 -5 -13z"/>
<path d="M1020 940 c0 -5 5 -10 11 -10 5 0 7 5 4 10 -3 6 -8 10 -11 10 -2 0
-4 -4 -4 -10z"/>
<path d="M1068 883 c19 -8 14 -26 -5 -18 -14 5 -15 3 -6 -6 6 -6 16 -8 22 -5
17 11 13 36 -6 35 -11 0 -13 -3 -5 -6z"/>
<path d="M446 787 c-18 -13 -18 -14 -2 -20 10 -4 25 -2 34 4 15 9 15 10 -2 5
-13 -5 -17 -2 -12 9 7 18 5 19 -18 2z"/>
<path d="M1073 765 c0 -7 6 -11 14 -8 7 3 13 6 13 8 0 2 -6 5 -13 8 -8 3 -14
-1 -14 -8z"/>
<path d="M494 746 c11 -9 24 -16 30 -16 12 0 7 5 -24 19 -24 11 -24 11 -6 -3z"/>
<path d="M444 685 c-7 -18 3 -35 22 -35 17 0 18 -7 2 -24 -10 -10 -17 -10 -37
0 -15 7 -38 16 -53 19 -24 6 -28 4 -28 -13 0 -12 9 -23 22 -28 l22 -7 -23 -18
c-28 -23 -18 -42 19 -34 25 5 27 4 23 -18 -6 -28 15 -47 28 -26 5 8 14 38 20
67 8 34 15 48 21 40 5 -8 8 -2 8 18 0 24 -5 33 -22 39 l-23 7 25 7 25 7 -23 6
c-15 4 -25 2 -28 -7z"/>
<path d="M1064 660 c0 -11 5 -19 11 -17 5 2 10 10 10 17 0 7 -5 15 -10 17 -6
2 -11 -6 -11 -17z"/>
<path d="M1018 663 c7 -3 16 -2 19 1 4 3 -2 6 -13 5 -11 0 -14 -3 -6 -6z"/>
<path d="M1030 631 c0 -6 4 -13 10 -16 6 -3 7 1 4 9 -7 18 -14 21 -14 7z"/>
<path d="M1128 623 c-10 -2 -18 -8 -18 -12 0 -5 -11 -6 -25 -3 -14 2 -26 0
-26 -4 -5 -35 -5 -54 0 -48 6 5 7 9 10 37 1 9 4 8 10 -2 6 -9 4 -22 -5 -37
-20 -29 -9 -74 17 -74 16 0 18 5 13 25 -6 24 -4 25 19 20 32 -9 47 13 21 32
-16 12 -17 15 -4 23 8 5 19 11 24 13 11 4 0 38 -11 36 -4 -1 -16 -3 -25 -6z"/>
<path d="M500 601 c0 -17 18 -21 24 -6 3 9 0 15 -9 15 -8 0 -15 -4 -15 -9z"/>
<path d="M601 594 c0 -11 3 -14 6 -6 3 7 2 16 -1 19 -3 4 -6 -2 -5 -13z"/>
<path d="M630 580 c0 -11 4 -20 9 -20 5 0 7 9 4 20 -3 11 -7 20 -9 20 -2 0 -4
-9 -4 -20z"/>
<path d="M1010 590 c0 -5 7 -7 15 -4 8 4 15 8 15 10 0 2 -7 4 -15 4 -8 0 -15
-4 -15 -10z"/>
<path d="M526 565 c-9 -26 -7 -32 5 -12 6 10 9 21 6 23 -2 3 -7 -2 -11 -11z"/>
<path d="M1012 550 c0 -14 2 -19 5 -12 2 6 2 18 0 25 -3 6 -5 1 -5 -13z"/>
<path d="M592 500 c0 -14 2 -19 5 -12 2 6 2 18 0 25 -3 6 -5 1 -5 -13z"/>
<path d="M692 380 c-27 -37 -27 -42 0 -38 17 2 22 10 23 36 1 17 1 32 0 32 -1
0 -11 -13 -23 -30z"/>
<path d="M775 400 c-3 -6 1 -7 9 -4 18 7 21 14 7 14 -6 0 -13 -4 -16 -10z"/>
<path d="M800 380 c12 -8 12 -12 2 -18 -19 -13 8 -34 28 -22 12 7 11 12 -4 29
-11 12 -24 21 -30 21 -6 0 -4 -5 4 -10z"/>
<path d="M720 371 c0 -6 5 -13 10 -16 6 -4 9 -14 8 -23 -2 -9 4 -18 13 -20 12
-2 18 6 22 30 5 38 0 49 -14 28 -8 -11 -12 -12 -16 -2 -6 14 -23 16 -23 3z"/>
</g>
</svg>
